<?xml version="1.0" encoding="utf-8"?>
<!-- Generator: Adobe Illustrator 22.1.0, SVG Export Plug-In . SVG Version: 6.00 Build 0)  -->
<svg version="1.1" id="Layer_1" xmlns="http://www.w3.org/2000/svg" xmlns:xlink="http://www.w3.org/1999/xlink" x="0px" y="0px"
	 viewBox="0 0 261 99" style="enable-background:new 0 0 261 99;" xml:space="preserve">
<g>
	<g>
		<path d="M41.5,77.4H3.3V11h9.2v58.7h29V77.4z"/>
		<path d="M50.5,28.7h9.8l15,42.3L70,81.4L50.5,28.7z M93.6,28.7l-20.7,60c-0.8,2.2-1.7,4-3,5.3c-1.2,1.3-2.7,2.2-4.5,2.8
			s-4,0.8-6.6,0.8H57v-9.2h1.9c1.8,0,3.2-0.4,4.2-1.1c1-0.7,2-2,2.7-3.7l18-55H93.6z"/>
		<path d="M143.1,63.5c0,1.8-0.3,3.4-0.9,4.8s-1.4,2.7-2.5,3.8c-1,1.1-2.3,2-3.7,2.8c-1.4,0.8-2.9,1.4-4.4,1.9s-3.2,0.9-4.8,1.1
			c-1.7,0.2-3.3,0.4-4.9,0.4c-3.5,0-6.6-0.2-9.5-0.5s-5.7-0.8-8.5-1.5v-8.1c3,0.8,5.9,1.5,8.9,1.9c2.9,0.4,5.9,0.7,8.8,0.7
			c4.2,0,7.4-0.6,9.4-1.7c2-1.2,3-2.8,3-4.9c0-0.9-0.2-1.7-0.5-2.5c-0.3-0.7-0.9-1.4-1.8-2.1c-0.8-0.7-2.2-1.3-3.9-2.1
			s-4.2-1.5-7.3-2.4c-2.3-0.7-4.4-1.4-6.4-2.3c-1.9-0.9-3.6-1.9-5.1-3.1c-1.4-1.2-2.5-2.6-3.4-4.2c-0.8-1.6-1.2-3.5-1.2-5.6
			c0-1.4,0.3-3,1-4.7c0.7-1.7,1.8-3.3,3.4-4.7c1.6-1.5,3.7-2.7,6.4-3.6c2.7-1,6.1-1.4,10.2-1.4c2,0,4.2,0.1,6.7,0.3
			c2.4,0.2,5,0.6,7.6,1.1v7.9c-2.8-0.7-5.4-1.2-7.9-1.5c-2.5-0.3-4.6-0.5-6.5-0.5c-2.2,0-4.1,0.2-5.6,0.5c-1.5,0.3-2.7,0.8-3.7,1.4
			c-0.9,0.6-1.6,1.3-2,2.1c-0.4,0.8-0.6,1.7-0.6,2.6s0.2,1.7,0.5,2.5c0.4,0.7,1,1.5,2,2.2c1,0.7,2.3,1.4,4,2.1
			c1.7,0.7,4,1.4,6.8,2.3c3,0.9,5.6,1.8,7.6,2.8c2.1,1,3.7,2,5,3.2c1.3,1.2,2.2,2.5,2.8,4C142.8,59.9,143.1,61.6,143.1,63.5z"/>
		<path d="M203.4,77.4h-12.1L167.5,50v27.3h-8.8V5.6h8.8v44.1l22.9-23.3h11.7l-23.9,23.5L203.4,77.4z"/>
		<path d="M256.9,51.5c0,4-0.6,7.6-1.7,10.9s-2.7,6.1-4.8,8.5c-2.1,2.4-4.7,4.2-7.7,5.5c-3,1.3-6.4,2-10.3,2c-3.7,0-6.9-0.6-9.8-1.7
			s-5.3-2.8-7.4-5c-2-2.2-3.6-4.9-4.6-8.2s-1.6-7-1.6-11.2c0-4,0.6-7.6,1.7-10.8c1.1-3.3,2.7-6.1,4.8-8.4c2.1-2.4,4.7-4.2,7.7-5.5
			c3-1.3,6.4-2,10.3-2c3.7,0,6.9,0.6,9.8,1.7c2.9,1.1,5.3,2.8,7.4,5c2,2.2,3.6,4.9,4.6,8.2S256.9,47.3,256.9,51.5z M247.8,51.9
			c0-3.1-0.3-5.9-1-8.3c-0.7-2.4-1.7-4.3-3-5.9c-1.3-1.6-2.9-2.8-4.7-3.6c-1.8-0.8-3.9-1.2-6.2-1.2c-2.6,0-4.9,0.5-6.8,1.5
			c-1.9,1-3.4,2.4-4.6,4.1c-1.2,1.7-2.1,3.7-2.6,6s-0.8,4.7-0.8,7.2c0,3.1,0.3,5.9,1,8.3c0.7,2.4,1.7,4.3,3,5.9
			c1.3,1.6,2.8,2.8,4.7,3.6c1.8,0.8,3.9,1.2,6.2,1.2c2.6,0,4.9-0.5,6.8-1.5c1.9-1,3.4-2.4,4.6-4.1c1.2-1.7,2.1-3.7,2.6-6
			S247.8,54.4,247.8,51.9z"/>
	</g>
</g>
</svg>
